<?xml version="1.0" encoding="UTF-8" standalone="no"?>
<!-- Created with Inkscape (http://www.inkscape.org/) -->
<svg xmlns:inkscape="http://www.inkscape.org/namespaces/inkscape" xmlns:rdf="http://www.w3.org/1999/02/22-rdf-syntax-ns#" xmlns="http://www.w3.org/2000/svg" xmlns:xlink="http://www.w3.org/1999/xlink" xmlns:ns1="http://sozi.baierouge.fr" xmlns:cc="http://creativecommons.org/ns#" xmlns:sodipodi="http://sodipodi.sourceforge.net/DTD/sodipodi-0.dtd" xmlns:dc="http://purl.org/dc/elements/1.1/" id="svg2" xml:space="preserve" viewBox="0 0 32.451 45.55" version="1.1" inkscape:version="0.91 r13725">
  <defs id="defs6">
    <clipPath id="clipPath18">
      <path id="path20" d="m7-0.55984h12v4h-12v-4z" inkscape:connector-curvature="0"/>
    </clipPath>
    <mask id="mask22">
      <g id="g24">
        <g id="g26" clip-path="url(#clipPath18)">
          <path id="path28" style="fill:#000000;fill-opacity:.44920" d="m7-0.55984h12v4h-12v-4z" inkscape:connector-curvature="0"/>
        </g>
      </g>
    </mask>
    <clipPath id="clipPath34">
      <path id="path36" d="m7-0.55984h12v4h-12v-4z" inkscape:connector-curvature="0"/>
    </clipPath>
    <clipPath id="clipPath38">
      <path id="path40" d="m7 0h12v4h-12v-4z" inkscape:connector-curvature="0"/>
    </clipPath>
    <clipPath id="clipPath62">
      <path id="path64" d="m7 0.44016h12v6h-12v-6z" inkscape:connector-curvature="0"/>
    </clipPath>
    <mask id="mask66">
      <g id="g68">
        <g id="g70" clip-path="url(#clipPath62)">
          <path id="path72" style="fill:#000000;fill-opacity:.73830" d="m7 0.44016h12v6h-12v-6z" inkscape:connector-curvature="0"/>
        </g>
      </g>
    </mask>
    <clipPath id="clipPath78">
      <path id="path80" d="m7 0.44016h12v6h-12v-6z" inkscape:connector-curvature="0"/>
    </clipPath>
    <clipPath id="clipPath82">
      <path id="path84" d="m7 1h12v6h-12v-6z" inkscape:connector-curvature="0"/>
    </clipPath>
    <radialGradient id="radialGradient90" gradientUnits="userSpaceOnUse" cy="-16322" cx="4.2515" gradientTransform="matrix(.000064778 -.8 -1.0542 .000064778 -17194 9.5386)" r="6.175">
      <stop id="stop92" style="stop-color:#ffffff" offset="0"/>
      <stop id="stop94" style="stop-color:#83cfe6" offset=".98820"/>
      <stop id="stop96" style="stop-color:#83cfe6" offset="1"/>
    </radialGradient>
    <clipPath id="clipPath124">
      <path id="path126" d="m7 0.44016h12v5h-12v-5z" inkscape:connector-curvature="0"/>
    </clipPath>
    <mask id="mask128">
      <g id="g130">
        <g id="g132" clip-path="url(#clipPath124)">
          <path id="path134" style="fill:#000000;fill-opacity:.21090" d="m7 0.44016h12v5h-12v-5z" inkscape:connector-curvature="0"/>
        </g>
      </g>
    </mask>
    <clipPath id="clipPath140">
      <path id="path142" d="m7 0.44016h12v5h-12v-5z" inkscape:connector-curvature="0"/>
    </clipPath>
    <clipPath id="clipPath144">
      <path id="path146" d="m7 1h12v5h-12v-5z" inkscape:connector-curvature="0"/>
    </clipPath>
    <clipPath id="clipPath168">
      <path id="path170" d="m11 3.4402h4v3h-4v-3z" inkscape:connector-curvature="0"/>
    </clipPath>
    <mask id="mask172">
      <g id="g174">
        <g id="g176" clip-path="url(#clipPath168)">
          <path id="path178" style="fill:#000000;fill-opacity:.42190" d="m11 3.4402h4v3h-4v-3z" inkscape:connector-curvature="0"/>
        </g>
      </g>
    </mask>
    <clipPath id="clipPath184">
      <path id="path186" d="m11 3.4402h4v3h-4v-3z" inkscape:connector-curvature="0"/>
    </clipPath>
    <clipPath id="clipPath188">
      <path id="path190" d="m11 4h4v3h-4v-3z" inkscape:connector-curvature="0"/>
    </clipPath>
    <linearGradient id="linearGradient196" y2="-.95020" gradientUnits="userSpaceOnUse" x2="3.2" gradientTransform="matrix(.8 0 0 .8 11.72 6.44)" y1="-.95020">
      <stop id="stop198" style="stop-color:#abc5d9" offset="0"/>
      <stop id="stop200" style="stop-color:#edf8ff" offset=".45880"/>
      <stop id="stop202" style="stop-color:#b8d1e3" offset=".97650"/>
      <stop id="stop204" style="stop-color:#b8d1e3" offset="1"/>
    </linearGradient>
    <clipPath id="clipPath232">
      <path id="path234" d="m11 4.4402h4v13h-4v-13z" inkscape:connector-curvature="0"/>
    </clipPath>
    <mask id="mask236">
      <g id="g238">
        <g id="g240" clip-path="url(#clipPath232)">
          <path id="path242" style="fill:#000000;fill-opacity:.69140" d="m11 4.4402h4v13h-4v-13z" inkscape:connector-curvature="0"/>
        </g>
      </g>
    </mask>
    <clipPath id="clipPath248">
      <path id="path250" d="m11 4.4402h4v13h-4v-13z" inkscape:connector-curvature="0"/>
    </clipPath>
    <clipPath id="clipPath252">
      <path id="path254" d="m11 5h4v13h-4v-13z" inkscape:connector-curvature="0"/>
    </clipPath>
    <linearGradient id="linearGradient260" y2="-7.3999" gradientUnits="userSpaceOnUse" x2="2.8498" gradientTransform="matrix(.8 0 0 .8 11.84 17.72)" y1="-7.3999" x1="0.0498">
      <stop id="stop262" style="stop-color:#5a9bc9" offset="0"/>
      <stop id="stop264" style="stop-color:#edf8ff" offset=".45880"/>
      <stop id="stop266" style="stop-color:#61beff" offset=".97650"/>
      <stop id="stop268" style="stop-color:#61beff" offset="1"/>
    </linearGradient>
    <clipPath id="clipPath300">
      <path id="path302" d="m7 1.4402h2v3h-2v-3z" inkscape:connector-curvature="0"/>
    </clipPath>
    <mask id="mask304">
      <g id="g306">
        <g id="g308" clip-path="url(#clipPath300)">
          <path id="path310" style="fill:#000000;fill-opacity:.62110" d="m7 1.4402h2v3h-2v-3z" inkscape:connector-curvature="0"/>
        </g>
      </g>
    </mask>
    <clipPath id="clipPath316">
      <path id="path318" d="m7 1.4402h2v3h-2v-3z" inkscape:connector-curvature="0"/>
    </clipPath>
    <clipPath id="clipPath320">
      <path id="path322" d="m7 2h2v3h-2v-3z" inkscape:connector-curvature="0"/>
    </clipPath>
    <clipPath id="clipPath344">
      <path id="path346" d="m8 0.44016h2v2h-2v-2z" inkscape:connector-curvature="0"/>
    </clipPath>
    <mask id="mask348">
      <g id="g350">
        <g id="g352" clip-path="url(#clipPath344)">
          <path id="path354" style="fill:#000000;fill-opacity:.62110" d="m8 0.44016h2v2h-2v-2z" inkscape:connector-curvature="0"/>
        </g>
      </g>
    </mask>
    <clipPath id="clipPath360">
      <path id="path362" d="m8 0.44016h2v2h-2v-2z" inkscape:connector-curvature="0"/>
    </clipPath>
    <clipPath id="clipPath364">
      <path id="path366" d="m8 1h2v2h-2v-2z" inkscape:connector-curvature="0"/>
    </clipPath>
    <clipPath id="clipPath388">
      <path id="path390" d="m16 1.4402h3v3h-3v-3z" inkscape:connector-curvature="0"/>
    </clipPath>
    <mask id="mask392">
      <g id="g394">
        <g id="g396" clip-path="url(#clipPath388)">
          <path id="path398" style="fill:#000000;fill-opacity:.62110" d="m16 1.4402h3v3h-3v-3z" inkscape:connector-curvature="0"/>
        </g>
      </g>
    </mask>
    <clipPath id="clipPath404">
      <path id="path406" d="m16 1.4402h3v3h-3v-3z" inkscape:connector-curvature="0"/>
    </clipPath>
    <clipPath id="clipPath408">
      <path id="path410" d="m16 2h3v3h-3v-3z" inkscape:connector-curvature="0"/>
    </clipPath>
    <clipPath id="clipPath432">
      <path id="path434" d="m0 23.44h26v6h-26v-6z" inkscape:connector-curvature="0"/>
    </clipPath>
    <mask id="mask436">
      <g id="g438">
        <g id="g440" clip-path="url(#clipPath432)">
          <path id="path442" style="fill:#000000;fill-opacity:.39060" d="m0 23.44h26v6h-26v-6z" inkscape:connector-curvature="0"/>
        </g>
      </g>
    </mask>
    <clipPath id="clipPath448">
      <path id="path450" d="m0 23.44h26v6h-26v-6z" inkscape:connector-curvature="0"/>
    </clipPath>
    <clipPath id="clipPath452">
      <path id="path454" d="m0 24h26v6h-26v-6z" inkscape:connector-curvature="0"/>
    </clipPath>
    <linearGradient id="linearGradient460" y2="-3.2998" gradientUnits="userSpaceOnUse" x2="31.45" gradientTransform="matrix(.8 0 0 .8 .48008 29.64)" y1="-3.2998">
      <stop id="stop462" style="stop-color:#c2e7ff" offset="0"/>
      <stop id="stop464" style="stop-color:#88abc2" offset="1"/>
    </linearGradient>
    <linearGradient id="linearGradient498" y2="16.227" gradientUnits="userSpaceOnUse" x2="-17.904" gradientTransform="matrix(.00012261 .8 .8 .0008 .000018021 36.44)" y1="16.227" x1="-24.429">
      <stop id="stop500" style="stop-color:#ffc83d" offset="0"/>
      <stop id="stop502" style="stop-color:#f73a00" offset="1"/>
    </linearGradient>
    <linearGradient id="linearGradient516" y2="-17.798" gradientUnits="userSpaceOnUse" x2="-4.3188" gradientTransform="matrix(-.786 -.14904 -.14904 .786 .000081044 36.44)" y1="-17.798" x1="-27.398">
      <stop id="stop518" style="stop-color:#ffc83d" offset="0"/>
      <stop id="stop520" style="stop-color:#f73a00" offset="1"/>
    </linearGradient>
    <clipPath id="clipPath528">
      <path id="path530" d="m4 17.44h10v7h-10v-7z" inkscape:connector-curvature="0"/>
    </clipPath>
    <mask id="mask532">
      <g id="g534">
        <g id="g536" clip-path="url(#clipPath528)">
          <path id="path538" style="fill:#000000;fill-opacity:.35940" d="m4 17.44h10v7h-10v-7z" inkscape:connector-curvature="0"/>
        </g>
      </g>
    </mask>
    <clipPath id="clipPath544">
      <path id="path546" d="m4 17.44h10v7h-10v-7z" inkscape:connector-curvature="0"/>
    </clipPath>
    <clipPath id="clipPath548">
      <path id="path550" d="m4 18h10v7h-10v-7z" inkscape:connector-curvature="0"/>
    </clipPath>
    <linearGradient id="linearGradient556" y2="-3.6582" gradientUnits="userSpaceOnUse" x2="9.0626" gradientTransform="matrix(.8 0 0 .8 4.7199 24.76)" y1="-3.6582" x1="2.0376">
      <stop id="stop558" style="stop-color:#ffffff" offset="0"/>
      <stop id="stop560" style="stop-color:#000000" offset="1"/>
    </linearGradient>
    <clipPath id="clipPath588">
      <path id="path590" d="m14 18.44h8v6h-8v-6z" inkscape:connector-curvature="0"/>
    </clipPath>
    <mask id="mask592">
      <g id="g594">
        <g id="g596" clip-path="url(#clipPath588)">
          <path id="path598" style="fill:#000000;fill-opacity:.35160" d="m14 18.44h8v6h-8v-6z" inkscape:connector-curvature="0"/>
        </g>
      </g>
    </mask>
    <clipPath id="clipPath604">
      <path id="path606" d="m14 18.44h8v6h-8v-6z" inkscape:connector-curvature="0"/>
    </clipPath>
    <clipPath id="clipPath608">
      <path id="path610" d="m14 19h8v6h-8v-6z" inkscape:connector-curvature="0"/>
    </clipPath>
    <linearGradient id="linearGradient616" y2="-19454" gradientUnits="userSpaceOnUse" x2="5774.2" gradientTransform="matrix(-.43592 -.6708 .6708 -.43592 15583 -4587)" y1="-19454" x1="5767.8">
      <stop id="stop618" style="stop-color:#ffffff" offset="0"/>
      <stop id="stop620" style="stop-color:#000000" offset="1"/>
    </linearGradient>
    <clipPath id="clipPath648">
      <path id="path650" d="m0 16.44h26v10h-26v-10z" inkscape:connector-curvature="0"/>
    </clipPath>
    <mask id="mask652">
      <g id="g654">
        <g id="g656" clip-path="url(#clipPath648)">
          <path id="path658" style="fill:#000000;fill-opacity:.21090" d="m0 16.44h26v10h-26v-10z" inkscape:connector-curvature="0"/>
        </g>
      </g>
    </mask>
    <clipPath id="clipPath664">
      <path id="path666" d="m0 16.44h26v10h-26v-10z" inkscape:connector-curvature="0"/>
    </clipPath>
    <clipPath id="clipPath668">
      <path id="path670" d="m0 17h26v10h-26v-10z" inkscape:connector-curvature="0"/>
    </clipPath>
    <linearGradient id="linearGradient676" y2="-6.001" gradientUnits="userSpaceOnUse" x2="31.988" gradientTransform="matrix(.8 0 0 .8 .16016 26.64)" y1="-6.001" x1=".0127">
      <stop id="stop678" style="stop-color:#a1daff" offset="0"/>
      <stop id="stop680" style="stop-color:#537f9c" offset="1"/>
    </linearGradient>
    <clipPath id="clipPath710">
      <path id="path712" d="m3 23.44h20v13h-20v-13z" inkscape:connector-curvature="0"/>
    </clipPath>
    <mask id="mask714">
      <g id="g716">
        <g id="g718" clip-path="url(#clipPath710)">
          <path id="path720" style="fill:#000000;fill-opacity:.67970" d="m3 23.44h20v13h-20v-13z" inkscape:connector-curvature="0"/>
        </g>
      </g>
    </mask>
    <clipPath id="clipPath726">
      <path id="path728" d="m3 23.44h20v13h-20v-13z" inkscape:connector-curvature="0"/>
    </clipPath>
    <clipPath id="clipPath730">
      <path id="path732" d="m3 24h20v13h-20v-13z" inkscape:connector-curvature="0"/>
    </clipPath>
    <linearGradient id="linearGradient738" y2="-16525" gradientUnits="userSpaceOnUse" x2="230.52" gradientTransform="matrix(-.02064 -.79976 .79976 -.02064 13234 -132.14)" y1="-16525" x1="215.99">
      <stop id="stop740" style="stop-color:#54c0ff" offset="0"/>
      <stop id="stop742" style="stop-color:#0e93f0" offset="1"/>
    </linearGradient>
    <clipPath id="clipPath770">
      <path id="path772" d="m5 22.44h15v11h-15v-11z" inkscape:connector-curvature="0"/>
    </clipPath>
    <mask id="mask774">
      <g id="g776">
        <g id="g778" clip-path="url(#clipPath770)">
          <path id="path780" style="fill:#000000;fill-opacity:.39840" d="m5 22.44h15v11h-15v-11z" inkscape:connector-curvature="0"/>
        </g>
      </g>
    </mask>
    <clipPath id="clipPath786">
      <path id="path788" d="m5 22.44h15v11h-15v-11z" inkscape:connector-curvature="0"/>
    </clipPath>
    <clipPath id="clipPath790">
      <path id="path792" d="m5 23h15v11h-15v-11z" inkscape:connector-curvature="0"/>
    </clipPath>
    <linearGradient id="linearGradient798" y2="-6.1973" gradientUnits="userSpaceOnUse" x2="19.838" gradientTransform="matrix(.8 0 0 .8 5.2398 33.04)" y1="-6.1973" x1="1.0625">
      <stop id="stop800" style="stop-color:#87cdff" offset="0"/>
      <stop id="stop802" style="stop-color:#6ed6f5" offset="1"/>
    </linearGradient>
    <clipPath id="clipPath830">
      <path id="path832" d="m8 23.44h11v6h-11v-6z" inkscape:connector-curvature="0"/>
    </clipPath>
    <mask id="mask834">
      <g id="g836">
        <g id="g838" clip-path="url(#clipPath830)">
          <path id="path840" style="fill:#000000;fill-opacity:.71880" d="m8 23.44h11v6h-11v-6z" inkscape:connector-curvature="0"/>
        </g>
      </g>
    </mask>
    <clipPath id="clipPath846">
      <path id="path848" d="m8 23.44h11v6h-11v-6z" inkscape:connector-curvature="0"/>
    </clipPath>
    <clipPath id="clipPath850">
      <path id="path852" d="m8 24h11v6h-11v-6z" inkscape:connector-curvature="0"/>
    </clipPath>
    <clipPath id="clipPath854">
      <path id="path856" d="m15.719 28.359c1.734-0.984 2.761-1.773 3.082-2.359 0.453-0.801-0.602-1.359-3.16-1.68-2.536-0.293-4.602-0.172-6.2 0.36-0.695 0.215-1.054 0.425-1.082 0.64-0.054 0.266 0.321 0.547 1.121 0.84 0.293 0.106 1.227 0.281 2.801 0.52 1.012 0.16 1.547 0.441 1.598 0.84 0.027 0.187 0.027 0.496 0 0.921 0 0.239 0.066 0.465 0.199 0.68 0.402 0.559 0.867 0.84 1.402 0.84-0.187-0.133-0.308-0.309-0.359-0.52-0.16-0.402 0.039-0.761 0.598-1.082z" inkscape:connector-curvature="0"/>
    </clipPath>
    <clipPath id="clipPath858">
      <path id="path860" d="m15493 740.84h8.797v14.412h-8.797v-14.412z" inkscape:connector-curvature="0"/>
    </clipPath>
    <linearGradient id="linearGradient862" y2="747.48" gradientUnits="userSpaceOnUse" x2="15500" y1="747.48" x1="15494">
      <stop id="stop864" style="stop-color:#ffffff" offset="0"/>
      <stop id="stop866" style="stop-color:#ffffff;stop-opacity:.62750" offset="1"/>
    </linearGradient>
    <mask id="mask868">
      <g id="g870">
        <g id="g872" clip-path="url(#clipPath858)">
          <path id="path874" style="fill:url(#linearGradient862)" d="m15493 740.84h8.797v14.412h-8.797v-14.412z" inkscape:connector-curvature="0"/>
        </g>
      </g>
    </mask>
    <linearGradient id="linearGradient876" y2="747.48" gradientUnits="userSpaceOnUse" x2="15500" y1="747.48" x1="15494">
      <stop id="stop878" style="stop-color:#ffffff" offset="0"/>
      <stop id="stop880" style="stop-color:#9ae0f5" offset="1"/>
    </linearGradient>
    <clipPath id="clipPath918">
      <path id="path920" d="m13 5.4402h1v11h-1v-11z" inkscape:connector-curvature="0"/>
    </clipPath>
    <mask id="mask922">
      <g id="g924">
        <g id="g926" clip-path="url(#clipPath918)">
          <path id="path928" style="fill:#000000;fill-opacity:.28910" d="m13 5.4402h1v11h-1v-11z" inkscape:connector-curvature="0"/>
        </g>
      </g>
    </mask>
    <clipPath id="clipPath934">
      <path id="path936" d="m13 5.4402h1v11h-1v-11z" inkscape:connector-curvature="0"/>
    </clipPath>
    <clipPath id="clipPath938">
      <path id="path940" d="m13 6h1v11h-1v-11z" inkscape:connector-curvature="0"/>
    </clipPath>
    <clipPath id="clipPath966">
      <path id="path968" d="m18 27.44h3v4h-3v-4z" inkscape:connector-curvature="0"/>
    </clipPath>
    <mask id="mask970">
      <g id="g972">
        <g id="g974" clip-path="url(#clipPath966)">
          <path id="path976" style="fill:#000000;fill-opacity:.39840" d="m18 27.44h3v4h-3v-4z" inkscape:connector-curvature="0"/>
        </g>
      </g>
    </mask>
    <clipPath id="clipPath982">
      <path id="path984" d="m18 27.44h3v4h-3v-4z" inkscape:connector-curvature="0"/>
    </clipPath>
    <clipPath id="clipPath986">
      <path id="path988" d="m18 28h3v4h-3v-4z" inkscape:connector-curvature="0"/>
    </clipPath>
    <linearGradient id="linearGradient994" y2="-1.5474" gradientUnits="userSpaceOnUse" x2="3.45" gradientTransform="matrix(.8 0 0 .8 18.2 31.16)" y1="-1.5474" x1="-12.25">
      <stop id="stop996" style="stop-color:#87cdff" offset="0"/>
      <stop id="stop998" style="stop-color:#6ed6f5" offset="1"/>
    </linearGradient>
    <clipPath id="clipPath1026">
      <path id="path1028" d="m9 27.44h3v2h-3v-2z" inkscape:connector-curvature="0"/>
    </clipPath>
    <mask id="mask1030">
      <g id="g1032">
        <g id="g1034" clip-path="url(#clipPath1026)">
          <path id="path1036" style="fill:#000000;fill-opacity:.39840" d="m9 27.44h3v2h-3v-2z" inkscape:connector-curvature="0"/>
        </g>
      </g>
    </mask>
    <clipPath id="clipPath1042">
      <path id="path1044" d="m9 27.44h3v2h-3v-2z" inkscape:connector-curvature="0"/>
    </clipPath>
    <clipPath id="clipPath1046">
      <path id="path1048" d="m9 28h3v2h-3v-2z" inkscape:connector-curvature="0"/>
    </clipPath>
    <linearGradient id="linearGradient1054" y2="48.085" gradientUnits="userSpaceOnUse" x2="61.445" gradientTransform="matrix(.8 .0048 -.0048 .8 -29.343 -9.631)" y1="48.085" x1="44.895">
      <stop id="stop1056" style="stop-color:#87cdff" offset="0"/>
      <stop id="stop1058" style="stop-color:#6ed6f5" offset="1"/>
    </linearGradient>
  </defs>
  <g id="g10" transform="matrix(1.25 0 0 -1.25 0 45.55)">
    <g id="g12">
      <g id="g14">
        <g id="g30" mask="url(#mask22)">
          <g id="g42">
            <g id="g44" clip-path="url(#clipPath34)">
              <g id="g46" transform="translate(0 -.55984)">
                <g id="g50">
                  <g id="g52" clip-path="url(#clipPath38)">
                    <g id="g54">
                      <path id="path56" style="fill-rule:evenodd;fill:#004e69" d="m16.922 1.801c1.117 0.453 1.746 1.027 1.879 1.719l0.039-0.239c0-0.746-0.574-1.386-1.719-1.922-1.148-0.531-2.519-0.8-4.121-0.8s-2.973 0.269-4.121 0.8c-1.145 0.536-1.719 1.176-1.719 1.922v0.36c0.078-0.719 0.68-1.336 1.801-1.84 1.144-0.481 2.492-0.723 4.039-0.723 1.52 0 2.828 0.242 3.922 0.723z" inkscape:connector-curvature="0"/>
                    </g>
                  </g>
                </g>
              </g>
            </g>
          </g>
        </g>
      </g>
      <g id="g58">
        <g id="g74" mask="url(#mask66)">
          <g id="g98">
            <g id="g100" clip-path="url(#clipPath78)">
              <g id="g102" transform="translate(0 -.55984)">
                <g id="g106">
                  <g id="g108" clip-path="url(#clipPath82)">
                    <g id="g110">
                      <g id="g112">
                        <g id="g114">
                          <g id="g116">
                            <path id="path118" style="fill-rule:evenodd;fill:url(#radialGradient90)" d="m18.84 3.801c0-0.746-0.574-1.387-1.719-1.922-1.121-0.531-2.496-0.801-4.121-0.801s-3 0.27-4.121 0.801c-1.145 0.535-1.719 1.176-1.719 1.922s0.574 1.371 1.719 1.879c1.121 0.535 2.496 0.8 4.121 0.8 1.629 0 3-0.265 4.121-0.8 1.145-0.508 1.719-1.133 1.719-1.879z" inkscape:connector-curvature="0"/>
                          </g>
                        </g>
                      </g>
                    </g>
                  </g>
                </g>
              </g>
            </g>
          </g>
        </g>
      </g>
      <g id="g120">
        <g id="g136" mask="url(#mask128)">
          <g id="g148">
            <g id="g150" clip-path="url(#clipPath140)">
              <g id="g152" transform="translate(0 -.55984)">
                <g id="g156">
                  <g id="g158" clip-path="url(#clipPath144)">
                    <g id="g160">
                      <path id="path162" style="fill-rule:evenodd;fill:#162c33" d="m17.199 5.68c1.094-0.559 1.641-1.188 1.641-1.879 0-0.746-0.574-1.387-1.719-1.922-1.121-0.531-2.496-0.801-4.121-0.801s-3 0.27-4.121 0.801c-1.145 0.535-1.719 1.176-1.719 1.922 0 0.906 0.813 1.64 2.442 2.199-0.586-0.348-0.977-0.641-1.161-0.879-0.269-0.348-0.293-0.746-0.082-1.199 0.426-0.801 1.403-1.375 2.922-1.723 1.492-0.344 2.973-0.344 4.438 0 1.121 0.242 1.801 0.735 2.043 1.481 0.211 0.695 0.023 1.359-0.563 2z" inkscape:connector-curvature="0"/>
                    </g>
                  </g>
                </g>
              </g>
            </g>
          </g>
        </g>
      </g>
      <g id="g164">
        <g id="g180" mask="url(#mask172)">
          <g id="g206">
            <g id="g208" clip-path="url(#clipPath184)">
              <g id="g210" transform="translate(0 -.55984)">
                <g id="g214">
                  <g id="g216" clip-path="url(#clipPath188)">
                    <g id="g218">
                      <g id="g220">
                        <g id="g222">
                          <g id="g224">
                            <path id="path226" style="fill-rule:evenodd;fill:url(#linearGradient196)" d="m13.078 4.922h-0.156c-0.59 0-0.961 0.144-1.121 0.437-0.188 0.321-0.016 0.68 0.519 1.082l0.68-0.242 0.719 0.242c0.508-0.375 0.679-0.734 0.519-1.082-0.16-0.293-0.543-0.437-1.16-0.437z" inkscape:connector-curvature="0"/>
                          </g>
                        </g>
                      </g>
                    </g>
                  </g>
                </g>
              </g>
            </g>
          </g>
        </g>
      </g>
      <g id="g228">
        <g id="g244" mask="url(#mask236)">
          <g id="g270">
            <g id="g272" clip-path="url(#clipPath248)">
              <g id="g274" transform="translate(0 -.55984)">
                <g id="g278">
                  <g id="g280" clip-path="url(#clipPath252)">
                    <g id="g282">
                      <g id="g284">
                        <g id="g286">
                          <g id="g288">
                            <path id="path290" style="fill-rule:evenodd;fill:url(#linearGradient260)" d="m13 17.281 1.121 0.438c-0.32-0.266-0.48-0.907-0.48-1.918-0.028-1.414-0.028-4.629 0-9.641-0.082-0.16-0.266-0.254-0.563-0.281h-0.199c-0.293 0.027-0.481 0.121-0.559 0.281 0.028 5.012 0.028 8.227 0 9.641 0 1.011-0.16 1.652-0.48 1.918l1.16-0.438z" inkscape:connector-curvature="0"/>
                          </g>
                        </g>
                      </g>
                    </g>
                  </g>
                </g>
              </g>
            </g>
          </g>
        </g>
      </g>
      <path id="path292" style="fill-rule:evenodd;fill:#b4cfe0" d="m14.16 17.042c-0.265-0.188-0.414-0.789-0.441-1.801v-9.641c0-0.238-0.199-0.375-0.598-0.398v-0.043h-0.121v0.16l-0.039-0.16-0.121 0.043c-0.399 0.023-0.602 0.144-0.602 0.359v9.68c-0.023 1.012-0.172 1.613-0.437 1.801l0.078 0.238 1.121-0.398 1.078 0.398 0.082-0.238zm-1.082-11.602c0.188 0.028 0.336 0.094 0.442 0.199-0.028 5.067-0.028 8.266 0 9.602 0 0.773 0.093 1.32 0.281 1.641l-0.801-0.282-0.801 0.282c0.16-0.375 0.242-0.922 0.242-1.641 0.028-1.336 0.028-4.535 0-9.602 0.106-0.105 0.254-0.171 0.438-0.199h0.199z" inkscape:connector-curvature="0"/>
      <path id="path294" style="fill-rule:evenodd;fill:#b4cfe0" d="m12.961 16.721c0.398-0.027 0.691 0.012 0.879 0.118l-0.16-0.637-0.039-1.563-0.082 0.801c-0.028 0.348-0.118 0.602-0.278 0.762-0.187 0.133-0.386 0.144-0.601 0.039-0.16-0.106-0.266-0.32-0.321-0.641v-0.14c-0.015 0.207-0.054 0.453-0.121 0.742l-0.16 0.598 0.883-0.079z" inkscape:connector-curvature="0"/>
      <g id="g296">
        <g id="g312" mask="url(#mask304)">
          <g id="g324">
            <g id="g326" clip-path="url(#clipPath316)">
              <g id="g328" transform="translate(0 -.55984)">
                <g id="g332">
                  <g id="g334" clip-path="url(#clipPath320)">
                    <g id="g336">
                      <path id="path338" style="fill-rule:evenodd;fill:#cef2f2" d="m7.68 4.48c0.16 0.051 0.265-0.082 0.32-0.402 0.105-0.504 0.293-0.906 0.559-1.199 0.242-0.32 0.203-0.453-0.118-0.399-0.32 0.055-0.601 0.254-0.839 0.598-0.481 0.641-0.457 1.11 0.078 1.402z" inkscape:connector-curvature="0"/>
                    </g>
                  </g>
                </g>
              </g>
            </g>
          </g>
        </g>
      </g>
      <g id="g340">
        <g id="g356" mask="url(#mask348)">
          <g id="g368">
            <g id="g370" clip-path="url(#clipPath360)">
              <g id="g372" transform="translate(0 -.55984)">
                <g id="g376">
                  <g id="g378" clip-path="url(#clipPath364)">
                    <g id="g380">
                      <path id="path382" style="fill-rule:evenodd;fill:#cef2f2" d="m9.281 2.32c0.211-0.105 0.254-0.215 0.117-0.32-0.105-0.078-0.226-0.055-0.359 0.078-0.105 0.11-0.133 0.188-0.078 0.242 0.078 0.055 0.184 0.055 0.32 0z" inkscape:connector-curvature="0"/>
                    </g>
                  </g>
                </g>
              </g>
            </g>
          </g>
        </g>
      </g>
      <g id="g384">
        <g id="g400" mask="url(#mask392)">
          <g id="g412">
            <g id="g414" clip-path="url(#clipPath404)">
              <g id="g416" transform="translate(0 -.55984)">
                <g id="g420">
                  <g id="g422" clip-path="url(#clipPath408)">
                    <g id="g424">
                      <path id="path426" style="fill-rule:evenodd;fill:#cef2f2" d="m17.922 3.078c0.293 0.457 0.453 0.817 0.476 1.082 0.161 0.238 0.27 0.149 0.321-0.281 0.027-0.399-0.16-0.758-0.559-1.078-0.453-0.348-0.867-0.52-1.238-0.52 0.586 0.371 0.918 0.641 1 0.797z" inkscape:connector-curvature="0"/>
                    </g>
                  </g>
                </g>
              </g>
            </g>
          </g>
        </g>
      </g>
      <g id="g428">
        <g id="g444" mask="url(#mask436)">
          <g id="g466">
            <g id="g468" clip-path="url(#clipPath448)">
              <g id="g470" transform="translate(0 -.55984)">
                <g id="g474">
                  <g id="g476" clip-path="url(#clipPath452)">
                    <g id="g478">
                      <g id="g480">
                        <g id="g482">
                          <g id="g484">
                            <path id="path486" style="fill-rule:evenodd;fill:url(#linearGradient460)" d="m25.641 27c0-0.746-1.227-1.375-3.68-1.879-2.453-0.508-5.426-0.762-8.922-0.762-3.465 0-6.426 0.254-8.879 0.762-2.453 0.504-3.68 1.133-3.68 1.879s1.227 1.371 3.68 1.879 5.414 0.762 8.879 0.762c3.496 0 6.469-0.254 8.922-0.762 2.453-0.504 3.68-1.133 3.68-1.879z" inkscape:connector-curvature="0"/>
                          </g>
                        </g>
                      </g>
                    </g>
                  </g>
                </g>
              </g>
            </g>
          </g>
        </g>
      </g>
      <g id="g488">
        <g id="g490">
          <g id="g496">
            <path id="path504" style="fill-rule:evenodd;fill:url(#linearGradient498)" d="m16.281 19.241c-0.242-0.188-0.508-0.387-0.801-0.602-0.558-0.453-0.906-0.773-1.039-0.961-0.109-0.132-0.242-0.343-0.402-0.636-0.184-0.215-0.465-0.336-0.84-0.364-0.371-0.023-0.679 0.055-0.918 0.243-0.082 0.05-0.281 0.254-0.601 0.597-0.641 0.696-1.52 1.43-2.641 2.203l-5.598 3.918h19.079l-6.239-4.398z" inkscape:connector-curvature="0"/>
          </g>
        </g>
      </g>
      <g id="g506">
        <g id="g508">
          <g id="g514">
            <path id="path522" style="fill-rule:evenodd;fill:url(#linearGradient516)" d="m23.199 24.44c0-0.613-0.984-1.144-2.961-1.601-2-0.426-4.398-0.637-7.199-0.637-2.824 0-5.227 0.211-7.199 0.637-2 0.457-3 0.988-3 1.601s1 1.133 3 1.559c2 0.429 4.398 0.64 7.199 0.64s5.199-0.211 7.199-0.64c1.977-0.426 2.961-0.946 2.961-1.559z" inkscape:connector-curvature="0"/>
          </g>
        </g>
      </g>
      <g id="g524">
        <g id="g540" mask="url(#mask532)">
          <g id="g562">
            <g id="g564" clip-path="url(#clipPath544)">
              <g id="g566" transform="translate(0 -.55984)">
                <g id="g570">
                  <g id="g572" clip-path="url(#clipPath548)">
                    <g id="g574">
                      <g id="g576">
                        <g id="g578">
                          <g id="g580">
                            <path id="path582" style="fill-rule:evenodd;fill:url(#linearGradient556)" d="m4.719 24.762 9.121-0.762-0.039-4.039c0-0.988-0.496-1.281-1.481-0.883l-1.48 0.883c-0.266 0.238-1.145 0.894-2.641 1.961-1.492 1.09-2.652 2.039-3.48 2.84z" inkscape:connector-curvature="0"/>
                          </g>
                        </g>
                      </g>
                    </g>
                  </g>
                </g>
              </g>
            </g>
          </g>
        </g>
      </g>
      <g id="g584">
        <g id="g600" mask="url(#mask592)">
          <g id="g622">
            <g id="g624" clip-path="url(#clipPath604)">
              <g id="g626" transform="translate(0 -.55984)">
                <g id="g630">
                  <g id="g632" clip-path="url(#clipPath608)">
                    <g id="g634">
                      <g id="g636">
                        <g id="g638">
                          <g id="g640">
                            <path id="path642" style="fill-rule:evenodd;fill:url(#linearGradient616)" d="m19.281 24.52 1.84 0.199-0.402-0.399c-0.321-0.32-1.039-0.906-2.16-1.761-1.36-1.039-2.438-1.774-3.239-2.2-0.828-0.425-1.16-0.574-1-0.437 0.028 0.023 0.559 0.437 1.602 1.238 1.144 0.906 2.266 2.028 3.359 3.36z" inkscape:connector-curvature="0"/>
                          </g>
                        </g>
                      </g>
                    </g>
                  </g>
                </g>
              </g>
            </g>
          </g>
        </g>
      </g>
      <g id="g644">
        <g id="g660" mask="url(#mask652)">
          <g id="g682">
            <g id="g684" clip-path="url(#clipPath664)">
              <g id="g686" transform="translate(0 -.55984)">
                <g id="g690">
                  <g id="g692" clip-path="url(#clipPath668)">
                    <g id="g694">
                      <g id="g696">
                        <g id="g698">
                          <g id="g700">
                            <path id="path702" style="fill-rule:evenodd;fill:url(#linearGradient676)" d="m25.48 26.441c-3.875-2.902-6.5-4.796-7.878-5.679-1.817-1.227-2.973-2.203-3.481-2.922-0.375-0.508-0.762-0.695-1.16-0.559-0.402-0.136-0.773 0.051-1.121 0.559-0.481 0.695-1.652 1.668-3.52 2.922-1.379 0.883-4.008 2.777-7.879 5.679 1.411-1 2.489-1.586 3.239-1.761 0.988-0.188 4.082-0.508 9.281-0.961 5.199 0.453 8.293 0.773 9.277 0.961 0.754 0.175 1.832 0.761 3.242 1.761z" inkscape:connector-curvature="0"/>
                          </g>
                        </g>
                      </g>
                    </g>
                  </g>
                </g>
              </g>
            </g>
          </g>
        </g>
      </g>
      <path id="path704" style="fill-rule:evenodd;fill:#b4cfe0" d="m25.078 26.479c-0.078 0.696-1.289 1.281-3.637 1.762-2.347 0.48-5.16 0.719-8.441 0.719s-6.105-0.239-8.48-0.719c-2.348-0.481-3.547-1.066-3.598-1.762h-0.883c0.266 0.774 1.641 1.414 4.121 1.922 2.481 0.531 5.414 0.801 8.801 0.801 3.414 0 6.359-0.27 8.84-0.801 2.453-0.508 3.812-1.148 4.078-1.922h-0.801z" inkscape:connector-curvature="0"/>
      <g id="g706">
        <g id="g722" mask="url(#mask714)">
          <g id="g744">
            <g id="g746" clip-path="url(#clipPath726)">
              <g id="g748" transform="translate(0 -.55984)">
                <g id="g752">
                  <g id="g754" clip-path="url(#clipPath730)">
                    <g id="g756">
                      <g id="g758">
                        <g id="g760">
                          <g id="g762">
                            <path id="path764" style="fill-rule:evenodd;fill:url(#linearGradient738)" d="m22.238 29.281c-0.504 0-0.879-0.254-1.117-0.761-0.293-0.586-0.016-1.188 0.84-1.801 0.934-0.664 1.066-1.184 0.398-1.559-0.586-0.32-1.879-0.558-3.879-0.719-2.105-0.214-4.679-0.253-7.718-0.121-3.094 0.133-5.188 0.375-6.282 0.719-0.906 0.293-1.214 0.656-0.921 1.082 0.269 0.371 0.882 0.68 1.839 0.918 1.707 0.402 2.895 0.883 3.563 1.441 0.238 0.188 0.453 0.598 0.641 1.239 0.183 0.613 0.371 1 0.558 1.16 0.375 0.348 0.906 0.586 1.602 0.723l-0.364-0.243c-0.16-0.105-0.253-0.281-0.277-0.519v-0.34l0.641 0.422c0.613 0.371 1.199 0.613 1.758 0.719 0.32 0.078 0.906 0.093 1.761 0.039 0.371 0 0.692 0.254 0.957 0.761 0.27 0.481 0.16 0.918-0.32 1.321l-0.797 0.437c-1.043 0.774-1.121 1.481-0.242 2.121 0.453 0.293 1 0.52 1.641 0.68-0.692-0.266-1.04-0.668-1.04-1.199 0-0.481 0.254-0.828 0.758-1.039 1.254-0.535 1.907-0.817 1.961-0.84 0.641-0.375 0.934-0.988 0.879-1.844 0-0.426-0.078-0.812-0.238-1.156l0.398 0.359c0.297 0.211 0.442 0.907 0.442 2.078 0.933-0.851 1.465-1.734 1.601-2.64 0.078-0.586-0.082-1.078-0.48-1.481l-0.641-0.437 0.918 0.437c0.59 0.297 1.215 0.309 1.883 0.043h-0.723z" inkscape:connector-curvature="0"/>
                          </g>
                        </g>
                      </g>
                    </g>
                  </g>
                </g>
              </g>
            </g>
          </g>
        </g>
      </g>
      <g id="g766">
        <g id="g782" mask="url(#mask774)">
          <g id="g804">
            <g id="g806" clip-path="url(#clipPath786)">
              <g id="g808" transform="translate(0 -.55984)">
                <g id="g812">
                  <g id="g814" clip-path="url(#clipPath790)">
                    <g id="g816">
                      <g id="g818">
                        <g id="g820">
                          <g id="g822">
                            <path id="path824" style="fill-rule:evenodd;fill:url(#linearGradient798)" d="m16.121 31.039c0.16 0.563 0.145 1.039-0.043 1.441l-0.316 0.559c0.746-0.613 1.117-1.254 1.117-1.918 0-0.402-0.051-0.723-0.16-0.961-0.184-0.293-0.332-0.535-0.438-0.719-0.187-0.32-0.176-0.734 0.039-1.242 0.239-0.531 0.625-0.84 1.16-0.918 0.454-0.082 0.801-0.082 1.04 0 0.16 0.051 0.308 0.145 0.441 0.278l0.238 0.16-0.16-0.559c-0.078-0.426-0.027-0.734 0.16-0.922 0.321-0.265 0.535-0.597 0.641-1 0.133-0.476 0.012-0.812-0.36-1-0.988-0.558-3.082-0.918-6.281-1.078-3.597-0.16-6.105 0.215-7.519 1.121-0.559 0.348-0.625 0.731-0.2 1.16 0.454 0.426 1.305 0.731 2.559 0.918 2.215 0.266 3.481 0.868 3.801 1.801 0.16 0.453 0.519 0.879 1.078 1.281 0.617 0.454 1.254 0.664 1.922 0.637 0.64-0.023 1.066 0.297 1.281 0.961z" inkscape:connector-curvature="0"/>
                          </g>
                        </g>
                      </g>
                    </g>
                  </g>
                </g>
              </g>
            </g>
          </g>
        </g>
      </g>
      <g id="g826">
        <g id="g842" mask="url(#mask834)">
          <g id="g882">
            <g id="g884" clip-path="url(#clipPath846)">
              <g id="g886" transform="translate(0 -.55984)">
                <g id="g890">
                  <g id="g892" clip-path="url(#clipPath850)">
                    <g id="g894">
                      <g id="g896">
                        <g id="g898" clip-path="url(#clipPath854)">
                          <g id="g900" transform="matrix(.07752 .79624 -.79624 .07752 -592.26 -12371)">
                            <g id="g904" mask="url(#mask868)">
                              <path id="path906" style="fill-rule:evenodd;fill:url(#linearGradient876)" d="m15.719 28.359c1.734-0.984 2.761-1.773 3.082-2.359 0.453-0.801-0.602-1.359-3.16-1.68-2.536-0.293-4.602-0.172-6.2 0.36-0.695 0.215-1.054 0.425-1.082 0.64-0.054 0.266 0.321 0.547 1.121 0.84 0.293 0.106 1.227 0.281 2.801 0.52 1.012 0.16 1.547 0.441 1.598 0.84 0.027 0.187 0.027 0.496 0 0.921 0 0.239 0.066 0.465 0.199 0.68 0.402 0.559 0.867 0.84 1.402 0.84-0.187-0.133-0.308-0.309-0.359-0.52-0.16-0.402 0.039-0.761 0.598-1.082z" inkscape:connector-curvature="0"/>
                            </g>
                          </g>
                        </g>
                      </g>
                    </g>
                  </g>
                </g>
              </g>
            </g>
          </g>
        </g>
      </g>
      <path id="path908" style="fill-rule:evenodd;fill:#b4cfe0" d="m23.398 24.518-0.918-0.316c-2.132-0.535-5.281-0.895-9.441-1.082h-1.32c-3.012 0.055-5.574 0.332-7.68 0.84-0.371 0.082-1 0.359-1.879 0.84 3.387-2.504 5.453-4 6.199-4.481 1.868-1.226 3.055-2.211 3.563-2.957 0.238-0.348 0.586-0.523 1.039-0.523h0.117c0.375 0 0.684 0.175 0.922 0.523 0.508 0.746 1.695 1.731 3.559 2.957 1.066 0.723 3.015 2.121 5.839 4.199zm-5.718-4.476c-1.785-1.176-2.946-2.121-3.481-2.84-0.32-0.457-0.691-0.684-1.121-0.684l-0.117 0.043-0.121-0.043c-0.426 0-0.801 0.227-1.121 0.684-0.504 0.719-1.664 1.664-3.481 2.84-1.383 0.933-4.105 2.906-8.16 5.918l-0.039 0.039v0.242h0.121l0.559-0.281c1.629-0.985 2.75-1.547 3.359-1.68 2.375-0.559 4.922-0.84 7.641-0.84l1.32-0.039c4.188 0.184 7.32 0.559 9.402 1.117 0.747 0.188 1.758 0.707 3.039 1.563 0.133 0.105 0.227 0.16 0.282 0.16h0.117v-0.242l-0.039-0.039c-4.055-3.012-6.774-4.985-8.16-5.918z" inkscape:connector-curvature="0"/>
      <path id="path910" style="fill-rule:evenodd;fill:#b4cfe0" d="m25.078 26.479h0.801l0.082-0.238c0-0.801-1.266-1.496-3.801-2.082-2.558-0.559-5.625-0.84-9.199-0.84s-6.629 0.281-9.16 0.84c-2.535 0.586-3.801 1.281-3.801 2.082l0.039 0.238h0.883l-0.043-0.039c0-0.695 1.187-1.293 3.562-1.801 2.371-0.48 5.227-0.718 8.559-0.718s6.188 0.238 8.559 0.718c2.347 0.508 3.519 1.106 3.519 1.801v0.039z" inkscape:connector-curvature="0"/>
      <path id="path912" style="fill-rule:evenodd;fill:#dff7f7" d="m12.961 10.839c0-2.879-0.055-4.321-0.16-4.321-0.082 0-0.121 1.442-0.121 4.321 0 2.91 0.039 4.363 0.121 4.363 0.105 0 0.16-1.453 0.16-4.363z" inkscape:connector-curvature="0"/>
      <g id="g914">
        <g id="g930" mask="url(#mask922)">
          <g id="g942">
            <g id="g944" clip-path="url(#clipPath934)">
              <g id="g946" transform="translate(0 -.55984)">
                <g id="g950">
                  <g id="g952" clip-path="url(#clipPath938)">
                    <g id="g954">
                      <path id="path956" style="fill-rule:evenodd;fill:#dff7f7" d="m13.398 11.32c0-3.332-0.027-5-0.078-5-0.054 0-0.082 1.668-0.082 5s0.028 5 0.082 5c0.055 0 0.078-1.668 0.078-5z" inkscape:connector-curvature="0"/>
                    </g>
                  </g>
                </g>
              </g>
            </g>
          </g>
        </g>
      </g>
      <path id="path958" style="fill-rule:evenodd;fill:#b4cfe0" d="m7.762 4.319c-0.43-0.453-0.641-0.918-0.641-1.398 0-0.098 0.004-0.184 0.02-0.258-0.2 0.68-0.098 1.219 0.3 1.617 0.559 0.535 1.504 0.973 2.84 1.32 0.692 0.188 1.321 0.321 1.879 0.399 0.078-0.133 0.078-0.199 0-0.199-0.375 0.082-1.094-0.051-2.16-0.399-1.145-0.348-1.895-0.707-2.238-1.082z" inkscape:connector-curvature="0"/>
      <path id="path960" style="fill-rule:evenodd;fill:#b4cfe0" d="m13.961 6.042c0.266-0.028 0.734-0.137 1.398-0.321 1.375-0.363 2.301-0.769 2.782-1.218-0.207 0.144-0.657 0.351-1.34 0.617-0.586 0.242-1.281 0.441-2.082 0.601l-1 0.118v0.16l0.242 0.043z" inkscape:connector-curvature="0"/>
      <g id="g962">
        <g id="g978" mask="url(#mask970)">
          <g id="g1000">
            <g id="g1002" clip-path="url(#clipPath982)">
              <g id="g1004" transform="translate(0 -.55984)">
                <g id="g1008">
                  <g id="g1010" clip-path="url(#clipPath986)">
                    <g id="g1012">
                      <g id="g1014">
                        <g id="g1016">
                          <g id="g1018">
                            <path id="path1020" style="fill-rule:evenodd;fill:url(#linearGradient994)" d="m19.879 31.16c0.215-0.32 0.336-0.535 0.359-0.64 0.11-0.293 0.094-0.598-0.039-0.918-0.211-0.403-0.492-0.68-0.84-0.84-0.398-0.16-0.746-0.067-1.039 0.277-0.32 0.348-0.093 0.695 0.68 1.043 0.719 0.293 1.012 0.652 0.879 1.078z" inkscape:connector-curvature="0"/>
                          </g>
                        </g>
                      </g>
                    </g>
                  </g>
                </g>
              </g>
            </g>
          </g>
        </g>
      </g>
      <g id="g1022">
        <g id="g1038" mask="url(#mask1030)">
          <g id="g1060">
            <g id="g1062" clip-path="url(#clipPath1042)">
              <g id="g1064" transform="translate(0 -.55984)">
                <g id="g1068">
                  <g id="g1070" clip-path="url(#clipPath1046)">
                    <g id="g1072">
                      <g id="g1074">
                        <g id="g1076">
                          <g id="g1078">
                            <path id="path1080" style="fill-rule:evenodd;fill:url(#linearGradient1054)" d="m10.398 29.961c0-0.215 0.028-0.402 0.082-0.563 0.051-0.16 0.188-0.293 0.399-0.398 0.266-0.105 0.469-0.238 0.601-0.398 0.215-0.27 0.04-0.403-0.519-0.403-0.535-0.027-0.856 0.16-0.961 0.563-0.105 0.476 0.027 0.879 0.398 1.199z" inkscape:connector-curvature="0"/>
                          </g>
                        </g>
                      </g>
                    </g>
                  </g>
                </g>
              </g>
            </g>
          </g>
        </g>
      </g>
    </g>
  </g>
<metadata><rdf:RDF><cc:Work><dc:format>image/svg+xml</dc:format><dc:type rdf:resource="http://purl.org/dc/dcmitype/StillImage"/><cc:license rdf:resource="http://creativecommons.org/licenses/publicdomain/"/><dc:publisher><cc:Agent rdf:about="http://openclipart.org/"><dc:title>Openclipart</dc:title></cc:Agent></dc:publisher></cc:Work><cc:License rdf:about="http://creativecommons.org/licenses/publicdomain/"><cc:permits rdf:resource="http://creativecommons.org/ns#Reproduction"/><cc:permits rdf:resource="http://creativecommons.org/ns#Distribution"/><cc:permits rdf:resource="http://creativecommons.org/ns#DerivativeWorks"/></cc:License></rdf:RDF></metadata></svg>
